[IMG]http://i.imgur.com/qs8bn.jpg[/IMG]


Love or Hate Us You Can't Beat Us @ PublicHD . ORG

You Won't Find Every Thing But You Will Get Something

-------------------------------------------------------------

Game Of Thrones S02E02 720p WEBRip XviD-REFiLL [PublicHD]

General
Complete name : /home/nadder/downloads/Game.Of.Thrones.S02E02.720p.WEBRip.XviD-REFiLL/Sample/refill.throness02e02.720p.sample.avi
Format : AVI
Format/Info : Audio Video Interleave
File size : 31.0 MiB
Duration : 56s 932ms
Overall bit rate : 4 567 Kbps
Writing application : VirtualDubMod 1.5.10.2 (build 2540/release)
Writing library : VirtualDubMod build 2540/release



Video
ID : 0
Format : MPEG-4 Visual
Format profile : Advanced Simple@L5
Format settings, BVOP : 1
Format settings, QPel : No
Format settings, GMC : No warppoints
Format settings, Matrix : Default (MPEG)
Codec ID : XVID
Codec ID/Hint : XviD
Duration : 56s 932ms
Bit rate : 4 364 Kbps
Width : 1 280 pixels
Height : 720 pixels
Display aspect ratio : 16:9
Frame rate : 23.976 fps
Color space : YUV
Chroma subsampling : 4:2:0
Bit depth : 8 bits
Scan type : Progressive
Compression mode : Lossy
Bits/(Pixel*Frame) : 0.197
Stream size : 29.6 MiB (96%)
Writing library : XviD 1.2.1 (UTC 2008-12-04)



Audio
ID : 1
Format : AC-3
Format/Info : Audio Coding 3
Mode extension : CM (complete main)
Codec ID : 2000
Duration : 56s 932ms
Bit rate mode : Constant
Bit rate : 192 Kbps
Channel(s) : 2 channels
Channel positions : Front: L R
Sampling rate : 48.0 KHz
Bit depth : 16 bits
Compression mode : Lossy
Delay relative to video : 10ms
Stream size : 1.30 MiB (4%)
Alignment : Split accross interleaves
Interleave, duration : 42 ms (1.01 video frame)
Interleave, preload duration : 500 ms